<svg xmlns="http://www.w3.org/2000/svg" width="20" height="20" viewBox="0 0 20 20" fill="none">
<path d="M14 0H6C2.68629 0 0 2.68629 0 6V14C0 17.3137 2.68629 20 6 20H14C17.3137 20 20 17.3137 20 14V6C20 2.68629 17.3137 0 14 0Z" fill="white"/>
<path d="M14 0.5H6C2.96243 0.5 0.5 2.96243 0.5 6V14C0.5 17.0376 2.96243 19.5 6 19.5H14C17.0376 19.5 19.5 17.0376 19.5 14V6C19.5 2.96243 17.0376 0.5 14 0.5Z" stroke="#413C3D"/>
<path d="M10.5 6.00031C10.5 5.72416 10.2761 5.50031 10 5.50031C9.72386 5.50031 9.5 5.72416 9.5 6.00031V14.0003C9.5 14.2764 9.72386 14.5003 10 14.5003C10.2761 14.5003 10.5 14.2764 10.5 14.0003V6.00031Z" fill="#413C3D"/>
<path d="M14 10.5004C14.2761 10.5004 14.5 10.2766 14.5 10.0004C14.5 9.72428 14.2761 9.50043 14 9.50043H6C5.72386 9.50043 5.5 9.72428 5.5 10.0004C5.5 10.2766 5.72386 10.5004 6 10.5004H14Z" fill="#413C3D"/>
</svg>